<svg version="1.1" xmlns="http://www.w3.org/2000/svg" viewBox="-1041.8217231434335 -1971.5279772190356 3209.1273075599793 3209.134037654334"><desc>Created with Snap</desc><defs></defs><g><rect x="-1041.8217231434335" y="-1971.5279772190356" width="3209.1273075599793" height="3209.134037654334" style="" fill="#540d6e"></rect><g transform="matrix(6.8916,0,0,6.8916,-815.5814,-1751.9192)">
<g id="gSl8nbqe121ce">
	<path fill="#ffffff" d="M369.78955,219.42564l18.46289-18.46289l-18.46289-18.46289V31.17271H218.4624l-18.46289-18.46289
		l-18.46277,18.46289H30.20947v151.32812l-18.46191,18.46191l18.46191,18.46191v151.32811h151.32727l18.46277,18.46289
		l18.46289-18.46289h151.32715V219.42564z M375.52393,200.96275l-5.73438,5.73438v-11.46875L375.52393,200.96275z
		 M232.42529,344.06137h-64.85138L56.90088,233.3878v-64.8501L167.57391,57.86412h64.85138l110.67285,110.67285v64.85156
		L232.42529,344.06137z M343.09814,246.11705v97.94432h-97.94434L343.09814,246.11705z M223.42529,353.06137l-8.69141,8.69141
		H185.2652l-8.69135-8.69141H223.42529z M56.90088,246.11632l97.94458,97.94505H56.90088V246.11632z M47.90088,224.38756
		l-8.69141-8.69141v-29.4668l8.69141-8.69141V224.38756z M56.90088,155.80919V57.86412h97.94458L56.90088,155.80919z
		 M176.57385,48.86412l8.69135-8.69141h29.46869l8.69141,8.69141H176.57385z M343.09814,155.80846l-97.94434-97.94434h97.94434
		V155.80846z M352.09814,177.53697l8.69141,8.69141v29.46875l-8.69141,8.69141V177.53697z M360.78955,40.17271v133.32715
		l-8.69141-8.69141V48.86412H236.15381l-8.69141-8.69141H360.78955z M199.99951,25.43834l5.73438,5.73438H194.2652
		L199.99951,25.43834z M39.20947,40.17271h133.32727l-8.69135,8.69141H47.90088v115.94507l-8.69141,8.69165V40.17271z
		 M24.47607,200.96275l5.7334-5.7334v11.4668L24.47607,200.96275z M39.20947,361.75278V228.42467l8.69141,8.69165v115.94505
		H163.8454l8.69135,8.69141H39.20947z M199.99951,376.48715l-5.73431-5.73438h11.46869L199.99951,376.48715z M227.4624,361.75278
		l8.69141-8.69141h115.94434V237.11705l8.69141-8.69141v133.32713H227.4624z" style=""></path>
</g>


<desc>Created with Snap</desc><defs></defs></g><g><g transform="matrix(1,0,0,-1,0,0)"><path d="M41 28L54 720L108 720L435 99L435 178Q435 480 446 721L503 710Q514 493 521 -5Q500 -14 477 -14Q443 -14 406 6Q345 100 254 281Q164 462 126 529Q127 461 127 281Q128 101 131 8Q122 -23 96 -23Q78 -23 61 -8Q45 7 41 28ZM603 6L606 728Q828 726 949 614Q1070 503 1070 288Q1070 219 1034 162Q998 105 941 71Q885 37 819 18Q754 0 690 0Q650 0 603 6ZM678 67L695 67Q752 67 805 80Q858 94 903 121Q948 148 975 195Q1002 243 1002 305Q1002 389 951 475Q901 562 829 615Q758 669 697 669Q684 669 672 666Q672 606 678 67Z" style="" fill="#ffffff"></path></g></g></g></svg>